<svg xmlns="http://www.w3.org/2000/svg" width="1800" height="2400" viewBox="0 0 1800 2400">
  <defs>
    <linearGradient id="g" x1="0" y1="0" x2="1" y2="1">
      <stop offset="0" stop-color="#0a0b0d"/>
      <stop offset=".45" stop-color="#1a0f15"/>
      <stop offset="1" stop-color="#101217"/>
    </linearGradient>
    <radialGradient id="r1" cx="30%" cy="25%" r="55%">
      <stop offset="0" stop-color="#f5c518" stop-opacity=".9"/>
      <stop offset=".55" stop-color="#f5c518" stop-opacity=".08"/>
      <stop offset="1" stop-color="#f5c518" stop-opacity="0"/>
    </radialGradient>
    <radialGradient id="r2" cx="75%" cy="40%" r="60%">
      <stop offset="0" stop-color="#d10f2f" stop-opacity=".7"/>
      <stop offset=".62" stop-color="#d10f2f" stop-opacity=".08"/>
      <stop offset="1" stop-color="#d10f2f" stop-opacity="0"/>
    </radialGradient>
    <filter id="blur">
      <feGaussianBlur stdDeviation="12"/>
    </filter>
    <filter id="grain">
      <feTurbulence type="fractalNoise" baseFrequency=".7" numOctaves="2" stitchTiles="stitch"/>
      <feColorMatrix type="matrix" values="
        1 0 0 0 0
        0 1 0 0 0
        0 0 1 0 0
        0 0 0 .35 0"/>
    </filter>
  </defs>

  <rect width="1800" height="2400" fill="url(#g)"/>
  <rect width="1800" height="2400" fill="url(#r1)"/>
  <rect width="1800" height="2400" fill="url(#r2)"/>

  <!-- Movement streaks -->
  <g opacity=".9">
    <path d="M-200 380 C 260 140, 520 320, 980 130 C 1200 40, 1460 20, 2100 260"
      fill="none" stroke="#f5c518" stroke-width="18" stroke-linecap="round" filter="url(#blur)" opacity=".55"/>
    <path d="M-160 520 C 320 280, 600 520, 1040 300 C 1320 160, 1500 160, 2080 420"
      fill="none" stroke="#f5c518" stroke-width="10" stroke-linecap="round" opacity=".45"/>
    <path d="M-220 760 C 220 520, 560 820, 980 610 C 1220 490, 1500 480, 2120 730"
      fill="none" stroke="#d10f2f" stroke-width="14" stroke-linecap="round" filter="url(#blur)" opacity=".55"/>
    <path d="M-240 980 C 240 740, 560 1040, 1020 820 C 1300 690, 1540 700, 2100 940"
      fill="none" stroke="#d10f2f" stroke-width="8" stroke-linecap="round" opacity=".4"/>
  </g>

  <!-- Abstract “sports” forms -->
  <g opacity=".92">
    <circle cx="1360" cy="1320" r="240" fill="#0a0b0d" opacity=".55"/>
    <circle cx="1360" cy="1320" r="210" fill="none" stroke="#f5c518" stroke-width="6" opacity=".55"/>
    <circle cx="1360" cy="1320" r="156" fill="none" stroke="#d10f2f" stroke-width="10" opacity=".35"/>

    <path d="M410 1540 C 520 1430, 690 1410, 780 1520 C 870 1630, 830 1820, 660 1880 C 490 1940, 320 1850, 300 1700 C 285 1585, 332 1608, 410 1540 Z"
      fill="#0a0b0d" opacity=".62"/>
    <path d="M350 1650 C 440 1565, 565 1560, 630 1640 C 705 1735, 670 1860, 545 1900 C 430 1936, 330 1878, 318 1765 C 308 1685, 310 1690, 350 1650 Z"
      fill="none" stroke="#f5c518" stroke-width="7" opacity=".42"/>
  </g>

  <!-- Minimal mark + timing strip -->
  <g opacity=".85">
    <rect x="120" y="2120" width="1560" height="2" fill="#f2efe8" opacity=".18"/>
    <text x="120" y="2190" fill="#f2efe8" font-family="ui-monospace, SFMono-Regular, Menlo, Monaco, Consolas, Liberation Mono, Courier New, monospace"
      font-size="34" letter-spacing=".32em" opacity=".42">IV PARTNERS — PLACEHOLDER STORY FRAME</text>
  </g>

  <!-- Embedded grain so the hero has texture even before CSS grain -->
  <rect width="1800" height="2400" filter="url(#grain)" opacity=".25"/>
</svg>

